<?xml version="1.0" encoding="UTF-8" standalone="no"?>
<!DOCTYPE svg PUBLIC "-//W3C//DTD SVG 1.1//EN" "http://www.w3.org/Graphics/SVG/1.1/DTD/svg11.dtd">
<svg xmlns="http://www.w3.org/2000/svg" version="1.1" viewBox="0.00 0.00 485.00 506.00">
<g stroke-width="2.00" fill="none" stroke-linecap="butt">
<path stroke="#00a8d7" vector-effect="non-scaling-stroke" d="
  M 130.29 12.55
  C 124.19 18.69 125.45 28.76 125.29 36.63
  Q 124.63 69.46 124.22 102.30
  C 124.10 112.35 127.70 121.10 137.41 124.79
  Q 141.78 126.46 154.77 126.68
  Q 188.14 127.26 221.49 127.74
  Q 228.70 127.85 232.33 126.52
  C 251.06 119.68 250.54 92.60 231.68 86.43
  Q 228.26 85.31 220.19 85.16
  Q 208.44 84.94 196.95 84.71
  Q 196.01 84.70 196.80 84.19
  C 228.71 63.62 268.68 63.78 299.35 86.58
  Q 304.47 90.38 314.13 100.02
  Q 334.20 120.02 354.19 140.13
  Q 354.54 140.47 354.36 140.93
  L 353.95 141.98"
/>
<path stroke="#61c1dc" vector-effect="non-scaling-stroke" d="
  M 353.95 141.98
  Q 353.54 141.67 353.00 141.74
  Q 317.53 146.58 290.69 171.23"
/>
<path stroke="#00a8d7" vector-effect="non-scaling-stroke" d="
  M 290.69 171.23
  C 242.20 217.06 243.38 293.08 292.64 337.54
  C 348.46 387.91 436.32 370.10 469.25 303.11"
/>
<path stroke="#61c1dc" vector-effect="non-scaling-stroke" d="
  M 469.25 303.11
  C 487.90 263.01 483.23 217.09 455.61 182.74
  Q 451.57 177.71 441.99 168.13
  Q 392.64 118.74 343.26 69.39
  Q 333.80 59.93 328.64 55.75
  C 281.73 17.82 216.30 17.36 167.93 52.91
  A 0.35 0.35 0.0 0 1 167.37 52.62
  Q 167.59 40.83 167.71 28.99
  Q 167.78 22.04 166.45 18.28
  C 160.97 2.76 141.00 -0.04 130.29 12.55"
/>
<path stroke="#61cff3" vector-effect="non-scaling-stroke" d="
  M 469.25 303.11
  Q 468.88 302.77 469.06 302.27
  C 482.68 264.76 476.83 222.83 452.16 191.18
  Q 448.04 185.90 438.65 176.45
  Q 363.47 100.75 334.03 71.72
  C 289.88 28.18 223.30 20.14 170.17 52.97
  Q 167.03 54.91 163.80 56.79
  Q 163.33 57.07 163.31 56.51
  Q 163.07 45.63 163.42 34.75
  C 164.00 16.35 147.15 6.90 130.29 12.55"
/>
<path stroke="#61cff3" vector-effect="non-scaling-stroke" d="
  M 290.69 171.23
  Q 290.80 171.30 290.91 171.36
  Q 291.06 171.45 291.21 171.35
  Q 319.13 152.97 351.94 146.16
  Q 353.93 145.75 356.15 145.67
  A 0.60 0.60 0.0 0 0 356.44 144.55
  Q 355.01 143.69 353.95 141.98"
/>
<path stroke="#61cff3" vector-effect="non-scaling-stroke" d="
  M 300.87 230.09
  Q 287.36 257.51 297.19 284.90
  C 313.45 330.20 368.64 344.22 405.66 314.19
  Q 406.97 313.13 407.14 312.21"
/>
<path stroke="#00a8d7" vector-effect="non-scaling-stroke" d="
  M 407.14 312.21
  C 427.89 297.25 440.01 273.79 438.03 248.31
  C 434.50 202.71 389.04 171.79 345.34 186.88
  C 326.19 193.49 310.88 207.55 302.84 226.79
  Q 302.05 228.67 300.87 230.09"
/>
<path stroke="#61c1dc" vector-effect="non-scaling-stroke" d="
  M 407.14 312.21
  C 366.11 338.97 310.13 317.96 299.22 269.60
  Q 294.86 250.28 300.87 230.09"
/>
<path stroke="#e86eaa" vector-effect="non-scaling-stroke" d="
  M 45.96 170.47
  Q 44.51 170.98 42.53 172.77
  C -5.83 216.62 -9.15 290.94 37.19 337.31
  Q 89.65 389.78 142.12 442.24
  Q 151.38 451.50 156.77 455.83
  C 195.37 486.85 248.16 493.41 293.48 472.52
  Q 293.97 472.29 294.34 472.67
  Q 304.80 482.90 315.13 493.22
  C 321.44 499.53 326.66 502.79 335.23 501.53
  Q 344.42 500.18 349.11 493.18"
/>
<path stroke="#ec96c2" vector-effect="non-scaling-stroke" d="
  M 349.11 493.18
  C 361.31 474.13 343.67 461.71 331.88 450.31"
/>
<path stroke="#e86eaa" vector-effect="non-scaling-stroke" d="
  M 331.88 450.31
  L 330.11 448.25
  A 0.78 0.78 0.0 0 1 330.14 447.20
  L 350.32 426.47"
/>
<path stroke="#ec96c2" vector-effect="non-scaling-stroke" d="
  M 350.32 426.47
  Q 357.44 413.54 351.59 403.68
  C 343.66 390.31 327.58 389.53 316.60 400.70"
/>
<path stroke="#e86eaa" vector-effect="non-scaling-stroke" d="
  M 316.60 400.70
  L 299.21 417.64"
/>
<path stroke="#ec96c2" vector-effect="non-scaling-stroke" d="
  M 299.21 417.64
  Q 291.38 409.66 283.85 402.25
  Q 276.71 395.22 273.05 393.54
  C 264.52 389.64 254.43 392.34 248.14 399.60"
/>
<path stroke="#e86eaa" vector-effect="non-scaling-stroke" d="
  M 248.14 399.60
  Q 245.94 401.88 245.05 404.33
  C 238.95 421.24 250.87 428.64 260.48 438.74
  Q 260.94 439.23 260.30 439.40
  L 254.06 441.05"
/>
<path stroke="#ec96c2" vector-effect="non-scaling-stroke" d="
  M 254.06 441.05
  Q 213.96 446.84 183.87 423.23
  Q 179.17 419.54 169.24 409.62
  Q 150.51 390.88 131.82 372.19"
/>
<path stroke="#e86eaa" vector-effect="non-scaling-stroke" d="
  M 131.82 372.19
  Q 130.65 371.33 130.50 370.60
  Q 130.38 370.03 130.96 369.94
  Q 187.97 361.15 216.49 311.46
  Q 218.10 308.66 218.91 305.80"
/>
<path stroke="#ec96c2" vector-effect="non-scaling-stroke" d="
  M 218.91 305.80
  C 257.33 224.14 190.64 135.01 102.24 145.77
  Q 70.98 149.58 45.96 170.47"
/>
<path stroke="#f5a5c9" vector-effect="non-scaling-stroke" d="
  M 218.91 305.80
  Q 230.29 272.48 222.91 240.06
  C 212.96 196.35 176.71 160.86 132.50 152.75
  Q 86.53 144.32 45.96 170.47"
/>
<path stroke="#f5a5c9" vector-effect="non-scaling-stroke" d="
  M 131.82 372.19
  L 122.94 373.76
  Q 122.29 373.88 122.75 374.35
  Q 144.54 396.14 166.17 418.08
  C 188.90 441.15 214.75 452.18 247.45 446.92
  C 251.09 446.33 252.86 444.24 254.06 441.05"
/>
<path stroke="#f5a5c9" vector-effect="non-scaling-stroke" d="
  M 248.14 399.60
  C 261.57 396.02 267.93 397.83 277.80 407.68
  Q 285.24 415.11 292.65 422.53
  A 0.78 0.77 46.4 0 0 293.71 422.56
  L 299.21 417.64"
/>
<path stroke="#f5a5c9" vector-effect="non-scaling-stroke" d="
  M 316.60 400.70
  C 335.78 394.30 351.52 406.41 350.32 426.47"
/>
<path stroke="#f5a5c9" vector-effect="non-scaling-stroke" d="
  M 331.88 450.31
  L 326.55 455.57
  Q 326.15 455.96 326.54 456.36
  C 337.08 467.10 350.71 475.58 349.11 493.18"
/>
<path stroke="#f5a5c9" vector-effect="non-scaling-stroke" d="
  M 50.20 234.95
  Q 42.80 248.31 42.49 263.24
  C 41.54 308.58 81.03 341.32 125.45 332.65
  Q 142.30 329.36 155.68 317.06"
/>
<path stroke="#e86eaa" vector-effect="non-scaling-stroke" d="
  M 155.68 317.06
  Q 157.84 314.99 160.26 313.05
  C 212.90 270.68 183.81 186.83 116.53 187.17
  C 86.23 187.32 60.96 206.77 50.20 234.95"
/>
<path stroke="#ec96c2" vector-effect="non-scaling-stroke" d="
  M 155.68 317.06
  C 98.05 351.60 30.23 299.60 50.20 234.95"
/>
</g>
<path fill="#009ac0" d="
  M 145.79 0.00
  L 148.07 0.00
  C 164.86 2.24 172.55 13.37 172.19 29.40
  Q 172.02 36.76 171.93 44.03
  Q 171.92 44.73 172.51 44.35
  C 227.49 8.93 297.36 16.84 343.42 63.08
  Q 394.77 114.65 446.23 166.12
  Q 455.60 175.51 459.78 180.82
  Q 483.22 210.65 485.00 249.82
  L 485.00 257.04
  C 482.58 314.27 440.80 362.03 383.59 369.61
  C 303.64 380.20 237.59 309.40 253.07 230.31
  C 262.22 183.55 299.21 147.82 345.75 138.31
  A 0.31 0.31 0.0 0 0 345.91 137.79
  Q 325.45 117.29 304.80 96.70
  C 280.89 72.85 243.93 67.19 212.72 80.21
  A 0.33 0.33 0.0 0 0 212.84 80.84
  C 219.77 80.80 227.92 80.46 234.07 82.77
  C 255.77 90.94 256.02 123.62 232.91 130.76
  Q 228.66 132.07 217.97 131.90
  Q 182.47 131.37 146.98 130.68
  C 130.24 130.35 119.76 119.56 120.01 102.79
  Q 120.51 69.76 121.03 36.73
  Q 121.27 21.95 122.92 16.99
  Q 127.78 2.35 145.79 0.00
  Z
  M 130.29 12.55
  C 124.19 18.69 125.45 28.76 125.29 36.63
  Q 124.63 69.46 124.22 102.30
  C 124.10 112.35 127.70 121.10 137.41 124.79
  Q 141.78 126.46 154.77 126.68
  Q 188.14 127.26 221.49 127.74
  Q 228.70 127.85 232.33 126.52
  C 251.06 119.68 250.54 92.60 231.68 86.43
  Q 228.26 85.31 220.19 85.16
  Q 208.44 84.94 196.95 84.71
  Q 196.01 84.70 196.80 84.19
  C 228.71 63.62 268.68 63.78 299.35 86.58
  Q 304.47 90.38 314.13 100.02
  Q 334.20 120.02 354.19 140.13
  Q 354.54 140.47 354.36 140.93
  L 353.95 141.98
  Q 353.54 141.67 353.00 141.74
  Q 317.53 146.58 290.69 171.23
  C 242.20 217.06 243.38 293.08 292.64 337.54
  C 348.46 387.91 436.32 370.10 469.25 303.11
  C 487.90 263.01 483.23 217.09 455.61 182.74
  Q 451.57 177.71 441.99 168.13
  Q 392.64 118.74 343.26 69.39
  Q 333.80 59.93 328.64 55.75
  C 281.73 17.82 216.30 17.36 167.93 52.91
  A 0.35 0.35 0.0 0 1 167.37 52.62
  Q 167.59 40.83 167.71 28.99
  Q 167.78 22.04 166.45 18.28
  C 160.97 2.76 141.00 -0.04 130.29 12.55
  Z"
/>
<path fill="#c1e8f7" d="
  M 469.25 303.11
  Q 468.88 302.77 469.06 302.27
  C 482.68 264.76 476.83 222.83 452.16 191.18
  Q 448.04 185.90 438.65 176.45
  Q 363.47 100.75 334.03 71.72
  C 289.88 28.18 223.30 20.14 170.17 52.97
  Q 167.03 54.91 163.80 56.79
  Q 163.33 57.07 163.31 56.51
  Q 163.07 45.63 163.42 34.75
  C 164.00 16.35 147.15 6.90 130.29 12.55
  C 141.00 -0.04 160.97 2.76 166.45 18.28
  Q 167.78 22.04 167.71 28.99
  Q 167.59 40.83 167.37 52.62
  A 0.35 0.35 0.0 0 0 167.93 52.91
  C 216.30 17.36 281.73 17.82 328.64 55.75
  Q 333.80 59.93 343.26 69.39
  Q 392.64 118.74 441.99 168.13
  Q 451.57 177.71 455.61 182.74
  C 483.23 217.09 487.90 263.01 469.25 303.11
  Z"
/>
<path fill="#00b5ee" d="
  M 469.25 303.11
  C 436.32 370.10 348.46 387.91 292.64 337.54
  C 243.38 293.08 242.20 217.06 290.69 171.23
  Q 290.80 171.30 290.91 171.36
  Q 291.06 171.45 291.21 171.35
  Q 319.13 152.97 351.94 146.16
  Q 353.93 145.75 356.15 145.67
  A 0.60 0.60 0.0 0 0 356.44 144.55
  Q 355.01 143.69 353.95 141.98
  L 354.36 140.93
  Q 354.54 140.47 354.19 140.13
  Q 334.20 120.02 314.13 100.02
  Q 304.47 90.38 299.35 86.58
  C 268.68 63.78 228.71 63.62 196.80 84.19
  Q 196.01 84.70 196.95 84.71
  Q 208.44 84.94 220.19 85.16
  Q 228.26 85.31 231.68 86.43
  C 250.54 92.60 251.06 119.68 232.33 126.52
  Q 228.70 127.85 221.49 127.74
  Q 188.14 127.26 154.77 126.68
  Q 141.78 126.46 137.41 124.79
  C 127.70 121.10 124.10 112.35 124.22 102.30
  Q 124.63 69.46 125.29 36.63
  C 125.45 28.76 124.19 18.69 130.29 12.55
  C 147.15 6.90 164.00 16.35 163.42 34.75
  Q 163.07 45.63 163.31 56.51
  Q 163.33 57.07 163.80 56.79
  Q 167.03 54.91 170.17 52.97
  C 223.30 20.14 289.88 28.18 334.03 71.72
  Q 363.47 100.75 438.65 176.45
  Q 448.04 185.90 452.16 191.18
  C 476.83 222.83 482.68 264.76 469.06 302.27
  Q 468.88 302.77 469.25 303.11
  Z
  M 300.87 230.09
  Q 287.36 257.51 297.19 284.90
  C 313.45 330.20 368.64 344.22 405.66 314.19
  Q 406.97 313.13 407.14 312.21
  C 427.89 297.25 440.01 273.79 438.03 248.31
  C 434.50 202.71 389.04 171.79 345.34 186.88
  C 326.19 193.49 310.88 207.55 302.84 226.79
  Q 302.05 228.67 300.87 230.09
  Z"
/>
<path fill="#df5fa3" d="
  M 333.93 506.00
  L 330.69 506.00
  C 323.65 505.23 318.88 502.82 313.54 497.58
  Q 303.53 487.77 293.64 477.72
  Q 293.28 477.35 292.79 477.54
  Q 287.36 479.61 281.87 481.48
  C 237.35 496.60 188.18 487.81 152.01 457.36
  Q 147.33 453.42 137.50 443.60
  Q 85.81 392.00 34.21 340.28
  Q 1.48 307.48 0.00 259.20
  L 0.00 255.93
  Q 1.60 208.43 33.48 175.64
  C 85.07 122.59 173.43 130.39 214.80 192.71
  C 261.09 262.45 221.25 356.54 139.24 372.66
  A 0.26 0.26 0.0 0 0 139.11 373.10
  Q 154.03 388.17 169.12 403.21
  Q 180.92 414.97 183.46 417.15
  Q 212.00 441.70 251.55 436.97
  A 0.55 0.55 0.0 0 0 251.88 436.04
  Q 248.72 432.89 245.64 429.37
  C 226.93 408.02 251.74 377.34 276.61 390.40
  C 284.41 394.50 292.65 404.83 299.13 411.23
  Q 299.51 411.60 299.89 411.23
  C 306.50 404.64 315.01 394.40 322.37 390.81
  C 344.19 380.17 367.03 404.24 355.75 425.71
  C 351.87 433.08 342.15 440.87 335.92 447.25
  Q 335.53 447.65 335.93 448.05
  C 342.27 454.39 351.59 462.14 355.15 469.32
  C 363.48 486.09 351.78 504.05 333.93 506.00
  Z
  M 45.96 170.47
  Q 44.51 170.98 42.53 172.77
  C -5.83 216.62 -9.15 290.94 37.19 337.31
  Q 89.65 389.78 142.12 442.24
  Q 151.38 451.50 156.77 455.83
  C 195.37 486.85 248.16 493.41 293.48 472.52
  Q 293.97 472.29 294.34 472.67
  Q 304.80 482.90 315.13 493.22
  C 321.44 499.53 326.66 502.79 335.23 501.53
  Q 344.42 500.18 349.11 493.18
  C 361.31 474.13 343.67 461.71 331.88 450.31
  L 330.11 448.25
  A 0.78 0.78 0.0 0 1 330.14 447.20
  L 350.32 426.47
  Q 357.44 413.54 351.59 403.68
  C 343.66 390.31 327.58 389.53 316.60 400.70
  L 299.21 417.64
  Q 291.38 409.66 283.85 402.25
  Q 276.71 395.22 273.05 393.54
  C 264.52 389.64 254.43 392.34 248.14 399.60
  Q 245.94 401.88 245.05 404.33
  C 238.95 421.24 250.87 428.64 260.48 438.74
  Q 260.94 439.23 260.30 439.40
  L 254.06 441.05
  Q 213.96 446.84 183.87 423.23
  Q 179.17 419.54 169.24 409.62
  Q 150.51 390.88 131.82 372.19
  Q 130.65 371.33 130.50 370.60
  Q 130.38 370.03 130.96 369.94
  Q 187.97 361.15 216.49 311.46
  Q 218.10 308.66 218.91 305.80
  C 257.33 224.14 190.64 135.01 102.24 145.77
  Q 70.98 149.58 45.96 170.47
  Z"
/>
<path fill="#c1e8f7" d="
  M 353.95 141.98
  Q 355.01 143.69 356.44 144.55
  A 0.60 0.60 0.0 0 1 356.15 145.67
  Q 353.93 145.75 351.94 146.16
  Q 319.13 152.97 291.21 171.35
  Q 291.06 171.45 290.91 171.36
  Q 290.80 171.30 290.69 171.23
  Q 317.53 146.58 353.00 141.74
  Q 353.54 141.67 353.95 141.98
  Z"
/>
<path fill="#f9cce0" d="
  M 218.91 305.80
  Q 230.29 272.48 222.91 240.06
  C 212.96 196.35 176.71 160.86 132.50 152.75
  Q 86.53 144.32 45.96 170.47
  Q 70.98 149.58 102.24 145.77
  C 190.64 135.01 257.33 224.14 218.91 305.80
  Z"
/>
<path fill="#f17db1" d="
  M 218.91 305.80
  Q 218.10 308.66 216.49 311.46
  Q 187.97 361.15 130.96 369.94
  Q 130.38 370.03 130.50 370.60
  Q 130.65 371.33 131.82 372.19
  L 122.94 373.76
  Q 122.29 373.88 122.75 374.35
  Q 144.54 396.14 166.17 418.08
  C 188.90 441.15 214.75 452.18 247.45 446.92
  C 251.09 446.33 252.86 444.24 254.06 441.05
  L 260.30 439.40
  Q 260.94 439.23 260.48 438.74
  C 250.87 428.64 238.95 421.24 245.05 404.33
  Q 245.94 401.88 248.14 399.60
  C 261.57 396.02 267.93 397.83 277.80 407.68
  Q 285.24 415.11 292.65 422.53
  A 0.78 0.77 46.4 0 0 293.71 422.56
  L 299.21 417.64
  L 316.60 400.70
  C 335.78 394.30 351.52 406.41 350.32 426.47
  L 330.14 447.20
  A 0.78 0.78 0.0 0 0 330.11 448.25
  L 331.88 450.31
  L 326.55 455.57
  Q 326.15 455.96 326.54 456.36
  C 337.08 467.10 350.71 475.58 349.11 493.18
  Q 344.42 500.18 335.23 501.53
  C 326.66 502.79 321.44 499.53 315.13 493.22
  Q 304.80 482.90 294.34 472.67
  Q 293.97 472.29 293.48 472.52
  C 248.16 493.41 195.37 486.85 156.77 455.83
  Q 151.38 451.50 142.12 442.24
  Q 89.65 389.78 37.19 337.31
  C -9.15 290.94 -5.83 216.62 42.53 172.77
  Q 44.51 170.98 45.96 170.47
  Q 86.53 144.32 132.50 152.75
  C 176.71 160.86 212.96 196.35 222.91 240.06
  Q 230.29 272.48 218.91 305.80
  Z
  M 50.20 234.95
  Q 42.80 248.31 42.49 263.24
  C 41.54 308.58 81.03 341.32 125.45 332.65
  Q 142.30 329.36 155.68 317.06
  Q 157.84 314.99 160.26 313.05
  C 212.90 270.68 183.81 186.83 116.53 187.17
  C 86.23 187.32 60.96 206.77 50.20 234.95
  Z"
/>
<path fill="#009ac0" d="
  M 407.14 312.21
  C 366.11 338.97 310.13 317.96 299.22 269.60
  Q 294.86 250.28 300.87 230.09
  Q 302.05 228.67 302.84 226.79
  C 310.88 207.55 326.19 193.49 345.34 186.88
  C 389.04 171.79 434.50 202.71 438.03 248.31
  C 440.01 273.79 427.89 297.25 407.14 312.21
  Z
  M 434.07 253.47
  A 66.17 66.17 0.0 0 0 367.90 187.30
  A 66.17 66.17 0.0 0 0 301.73 253.47
  A 66.17 66.17 0.0 0 0 367.90 319.64
  A 66.17 66.17 0.0 0 0 434.07 253.47
  Z"
/>
<path fill="#df5fa3" d="
  M 155.68 317.06
  C 98.05 351.60 30.23 299.60 50.20 234.95
  C 60.96 206.77 86.23 187.32 116.53 187.17
  C 183.81 186.83 212.90 270.68 160.26 313.05
  Q 157.84 314.99 155.68 317.06
  Z
  M 183.38 257.52
  A 66.18 66.18 0.0 0 0 117.20 191.34
  A 66.18 66.18 0.0 0 0 51.02 257.52
  A 66.18 66.18 0.0 0 0 117.20 323.70
  A 66.18 66.18 0.0 0 0 183.38 257.52
  Z"
/>
<path fill="#c1e8f7" d="
  M 300.87 230.09
  Q 294.86 250.28 299.22 269.60
  C 310.13 317.96 366.11 338.97 407.14 312.21
  Q 406.97 313.13 405.66 314.19
  C 368.64 344.22 313.45 330.20 297.19 284.90
  Q 287.36 257.51 300.87 230.09
  Z"
/>
<path fill="#f9cce0" d="
  M 50.20 234.95
  C 30.23 299.60 98.05 351.60 155.68 317.06
  Q 142.30 329.36 125.45 332.65
  C 81.03 341.32 41.54 308.58 42.49 263.24
  Q 42.80 248.31 50.20 234.95
  Z"
/>
<path fill="#f9cce0" d="
  M 131.82 372.19
  Q 150.51 390.88 169.24 409.62
  Q 179.17 419.54 183.87 423.23
  Q 213.96 446.84 254.06 441.05
  C 252.86 444.24 251.09 446.33 247.45 446.92
  C 214.75 452.18 188.90 441.15 166.17 418.08
  Q 144.54 396.14 122.75 374.35
  Q 122.29 373.88 122.94 373.76
  L 131.82 372.19
  Z"
/>
<path fill="#f9cce0" d="
  M 299.21 417.64
  L 293.71 422.56
  A 0.78 0.77 46.4 0 1 292.65 422.53
  Q 285.24 415.11 277.80 407.68
  C 267.93 397.83 261.57 396.02 248.14 399.60
  C 254.43 392.34 264.52 389.64 273.05 393.54
  Q 276.71 395.22 283.85 402.25
  Q 291.38 409.66 299.21 417.64
  Z"
/>
<path fill="#f9cce0" d="
  M 350.32 426.47
  C 351.52 406.41 335.78 394.30 316.60 400.70
  C 327.58 389.53 343.66 390.31 351.59 403.68
  Q 357.44 413.54 350.32 426.47
  Z"
/>
<path fill="#f9cce0" d="
  M 331.88 450.31
  C 343.67 461.71 361.31 474.13 349.11 493.18
  C 350.71 475.58 337.08 467.10 326.54 456.36
  Q 326.15 455.96 326.55 455.57
  L 331.88 450.31
  Z"
/>
</svg>
